<?xml version='1.0' encoding='utf-8'?>
<svg xmlns="http://www.w3.org/2000/svg" stroke="White" stroke-width="10" enable-background="new 0 0 4763.9648 5000" version="1.1" viewBox="0 0 4764 5e3"> <path d="m4442.1 1753.3c31.254-21.61 45.952-53.469 80.996-74.947-54.942-68.326-130.41-106.91-210.47-138.78-148.22-59.004-265.11-75.199-412.19-67.787-16.33 0.823-72.864 8.8057-73.423 8.566 21.77 9.7737 43.73 23.781 66.395 30.623 12.011-7.4359 25.108-16.476 38.623-20.583 20.196-6.1393 56.807-1.9915 77.199 2.7496l23.947 7.9537 8.9895 67.682c10.699-7.9286 48.159-47.813 56.058-50.201 8.3022-2.5111 63.429 9.574 78.356 12.594l4.2686 74.812c23.283-15.53 51.197-54.957 81.649-48.346 22.996 4.9874 44.475 15.093 64.771 26.772l-5.6011 85.008c62.028-40.706 57.88-57.184 87.089-50.935 14.035 4.0044 30.497 13.66 42.077 27.607 0.0552 4.2836-0.2817 7.4912-1.0156 11.704-1.6743 9.6532 2.4331 21.886 1.5835 32.574-1.6594 20.945-6.531 42.026-9.3015 62.931z"/> <path d="m3073.1 541.17c95.123 46.702 193.24 94.656 294.07 127.85-204.84-189-128.7-123.64-332.61-288.06-102.55-89.057-179.81-199.73-235.35-323.18 16.109 128.63 58.115 256.36 125.56 367.26 41.825 68.791 42.059 63.938 148.35 116.13z"/> <path d="m3465.7 690.52c47.77 52.198 141.22 26.191 440.18 225.34 31.659 21.091 64.514 42.358 93.66 66.873-0.3669-162.55-45.163-323.05-124.19-464.69-34.524-59.091-101.99-155.95-120.59-172.53 44.46 119.31 77.109 242.37 94.862 368.55 5.46 38.803 7.446 78.22 10.442 117.28-174.1-247.51-394.69-369.85-540.29-721.45-14.952-36.115-25.772-73.284-39.16-109.89-14.66 331.5 98.378 595.72 185.1 690.52z"/> <path d="m4760.7 1371.9c-24.464 46.375-58.839 82.388-110.37 98.406-59.11 18.372-111.72-3.6899-164.5-28.657-83.325-41.317-174.69-83.931-218.08-128.25-60.485-61.763-51.639-162.74-209.55-271.74-45.319-31.282-94.796-55.425-142.4-82.866-102.73-59.221-201.53-118.78-312.32-162.41-153.02-60.256-310.82-105.47-460.6-174.25-105.07-48.25-203.16-110.42-303.81-166.96-26.662-14.982-53.746-35.932-81.367-48.004 66.134 68.044 142.46 125.82 212.32 189.88 335.25 313.09 270.62 271.95 487.74 412.95l-655.19-207.53c163.96 89.711 298.13 203.42 440.25 319.55l-549.92 43.413c26.34 9.2208 62.187 8.6326 90.065 11.981l93.112 14.263c179.83 28.391 349.38 106.11 489.78 221.93-321.76 44.555-316.58 42.925-338.72 50.94-14.57 5.2744-34.595 4.4395-50.161 5.7521 18.038-15.373 28.588-15.263 217.79-57.843l86.696-17.395c-188.55-140.35-295.54-150-575.57-204.7l-124.61-14.002c88.846-30.913 209.61-47.881 505.22-97.35-367.13-305.78-349.74-256.08-422.62-323.55 113.61 8.4919 293.25 49.624 469.54 85.736-166.57-195.6-191.57-227.87-224.28-250.87l39.206 72.997c-160.22-31.436-702.4 15.445-1011.7 222.5-195.3 130.74-351.71 340.36-396.76 573.01-45.274 233.81 26.636 485.68 158.9 680.54 227.68 335.43 484.51 443 887.31 611.13 308.49 128.76 633.24 270.33 873.59 509.58 84.882 84.495 157.97 176.62 206.03 287.31 49.039 112.97 73.635 229.5 50.547 352.24-49.825 264.92-331.58 489.84-582.54 545.73 17.928-11.363 39.16-17.974 58.552-26.541 155.57-68.721 328.32-200.75 423.65-366.68 61.687-107.36 76.038-182.69 70.492-302.12-13.815 26.978-28.822 94.326-140.45 189.88 35.722-55.495 84.995-102.55 114.94-224.54 9.7009-39.532 19.362-44.766-32.524-159.65-150.36-332.96-536.19-561.79-873.49-702.15l-527.5-210.01c-120.26-52.81-238.54-112.44-343.95-191.52-205.51-154.17-337.57-367.42-393.56-620.23-106.75-482.04 209.08-1038.7 945.14-1197.9 226.33-48.949 370.05-17.645 429.97-8.8788-273.67-136.88-556.94-128.25-651.27-411.6l-13.937-53.036c-43.906 121.69-31.539 250.21 22.72 366.4l37.124 68.12c-142.28 4.0372-284.1 8.1649-425.77-8.9593-259.56-31.368-358.69-119.27-438.36-243.11-7.0942 116.08 31.941 223.67 108.78 311 68.939 78.351 153.05 120.39 249.83 155.2-16.053 14.771-52.649 24.942-73.172 32.745-152.25 57.894-308.9 86.189-471.99 79.251-225.14-9.582-500.63-97.58-651.28-261.46-13.509-14.701-25.284-37.617-39.844-49.538 10.915 61.051 43.233 119.35 75.726 171.41 85.922 137.68 196.23 257.41 329.67 350.46 152.28 106.17 318.83 158.92 499.51 192.98-40.885 71.146-91.554 136.69-140.9 202.09-226.72 300.43-432.87 482.9-891.59 512.84 131.87 59.693 344.74 99.275 468.65 104.98 172.26 7.929 350.81-27.984 496.24-88.074-232 462.52-156.18 927.67 194.11 1303.1 54.678 58.366 49.906 54.37 55.465 58.205-100.76-156.99-181.67-335.14-139.57-526.13 22.453-101.84 71.533-184.63 144.11-258.83 26.893-27.496 53.866-52.398 86.274-73.343-9.3514 43.499-15.842 86.4-16.767 130.97-3.645 175.43 63.213 367.09 157.56 513.32 82.418 127.73 191.94 238.06 307.7 335.65-88.456-158.66-152.68-354.91-101.48-536.52 21.01-74.5 69.738-144.92 132.12-190.71l2.2725-0.0549c0.6887 45.752 0.6587 91.905 5.1987 137.48 17.039 170.99 78.25 329.54 203.37 450.95 98.074 95.168 227.18 153.92 348.07 214.45-94.017-77.728-194.34-181.72-207.12-309.97-13.22-132.57 45.956-237.79 151.02-303.75 7.1594 14.962 8.6926 35.751 12.981 52.137 44.693 170.83 110.49 291.95 320 433.86 33.213 22.494 69.709 48.723 106.47 64.616-74.45-75.304-152.89-182.34-152.98-293.37-0.0354-46.888 18.602-91.986 46.088-129.29 92.79 71.991 174.23 147.46 228.52 253.73 19.246 37.672 35.842 80.633 40.955 122.86 15.907 131.45-22.699 208.25-111.07 280.29 33.163-14.409 64.309-29.055 94.097-49.864 101.06-70.6 175.51-196.8 173.52-346.08 85.144 139.97 110.32 286.85 71.73 446.58-58.094 240.45-220.74 438.34-369.5 528.87-183.89 111.93-415.07 121.04-620.29 70.146-263.31-65.294-484.01-228.56-689.92-398.58-220.04-181.7-439.24-383.88-882.11-465.53-189.56-34.947-389.05-36.229-576.99 9.9094 122.85 4.8818 249.9 14.47 365.8 58.94 19.015 7.2998 46.838 17.622 60.699 33.202 7.818 8.7832 8.4465 17.184 8.2152 28.507-34.318 80.094-271.03 97.831-628.23 354.82-5.4852 3.9468-41.339 28.592-41.502 30.679 114.62-25.752 236.22-39.97 353.62-29.296-200.04 187.52-309.36 395.7-403.71 557.68l-83.803 175.29c62.32-56.148 125.24-110.82 192.38-161.2 155.22-116.46 455.11-302.87 645.74-292.22 121.06 6.7651 164.53 74.876 202.04 179.63 0.9703 2.7095 0.0956 1.9053 2.0312 2.9058l7.8431-77.974c15.571-88.24 56.883-166.61 130.91-219.58 52.816-37.793 131.58-67.3 197.59-55.706 5.3477 0.9893-0.6019 0.0332 33.927 5.2744-27.768-31.931-55.832-63.58-87.878-91.332-70.664-61.201-156.05-100.25-249.83-106.73-94.9-6.5566-174.66 5.6765-305 68.24-219.15 105.21-362.45 249.3-386.03 255.71 124.75-125.49 256.76-237.92 418.97-312.37 233.06-106.97 429.36-79.385 632.61 122.76 166.9 166 281.36 380.02 617.16 598.74 792.77 516.37 1766.8 268.61 2162-127.19 170.93-171.18 297.94-403.43 340.93-642.12 13.162-73.102 17.159-148.8 16.898-223.01-0.5835-163.68-33.404-314.43-89.493-467.46-72.219-197.02-155.47-350.8-325.8-519.16-112.77-111.46-179.14-143.19-321.05-215.64-327.37-167.14-457.92-193.69-817.11-299.14-342.03-112.1-683.51-195.39-790.76-431.47-74.174-163.28 11.363-384.86 217.72-476.29 102.65-45.476 280.6-69.786 394.67-71.8 60.747-1.0773 53.495-2.2231 94.846 29.708 72.73 56.172 116.32 93.164 144.13 160.87-197.84 54.534-122.54 32.08-328.35 97.074-9.8789 3.1372-44.465 10.473-50.166 16.491 234.27 5.954 364.76 9.6896 558.42 93.017-25.757 23.971-122.78 95.702-203.77 140.77 55.817-8.2905 112.05-9.6984 168.39-9.5375 202.22 0.5883 391.49 44.082 576.1 125.92 93.888 41.62 313.79 152.37 327.37 253.99 4.3188 32.277-12.288 59.572-31.765 83.539-60.92 74.972-167.79 121.85-260.15 143.48 7.4861 3.499 28.673 1.3022 37.657 1.2419 90.136-0.6335 175.54-14.631 260.48-45.279 172.53-62.271 272.9-153 339.76-207.45l-180.9 65.988c-1.709-6.6917-8.3159-24.143-7.2949-30.412 1.1436-7.0342-2.8857 0.5928 114.84-187.56l-150.55 109.55-34.927-49.246 69.246-142.43-121.87 88.129-60.005-54.806 12.841-114.26-47.305 36.626c-16.642-22.353-25.942-48.999-41.614-71.835-43.539-63.449-111.99-114.22-178.54-151.03-14.324-7.9236-28.889-17.446-44.143-23.298 156.63 152.67 215.86 201.47 240.48 270.75-108.67-68.647-337.21-314.54-421.82-388.89 31.358-7.34 63.047-16.289 94.812-21.463 456.89-74.448 810.17 124.93 843.64 262.67 18.627 76.667-21.619 174.18-62.685 237.43l-24.274 32.343c30.126-19.613 57.989-50.171 82.56-76.44 92.237-98.632 168.97-211.33 197.18-345.68 13.129-62.521 12.664-163.93 7.5819-192.49zm-2441.6 3386.8c-56.883-44.284-92.74-98.426-101.39-171.11-1.6692-14.012-6.6365-39.085 2.4988-50.659 4.3137 2.6294 3.2778 0.7188 3.3936 5.4097 1.5986 66.118 39.703 135.96 80.729 186.11 15.153 18.521 32.309 32.837 46.752 52.604l-31.981-22.353zm236.3-3625.2c-1.5837-4.8315 0.5076-12.84 1.0608-17.928 8.8833-81.401 52.231-156.28 131.42-207.96 15.329-10 31.755-17.119 47.491-26.29-43.787-1.463-89.753-2.5831-132.32 3.7657-81.91 12.207-161.74 50.865-221.51 108.13-55.309 52.986-76.219 108.19-77.793 183.46l118.28 14.228c-42.162 3.8512-87.32 1.7446-129.56-1.6088-6.1138-122.69 43.227-216.69 166.14-286.82-31.19-1.7063-127.22 15.121-182.09 39.548-61.795 27.506-130.52 85.551-167.85 141.87-49.236 74.283-52.881 165.96-35.309 251.12 59.065-22.599 133.54-53.238 198.14-45.35-70.523 14.218-134.63 34.062-200.26 63.917-38.311-66.92-32.658-217.69 21.398-297.71 8.562-12.674 21.438-25.832 27.773-39.426-58.084 27.567-114.86 74.902-156.33 123.42-99.057 115.9-118.77 281.14-3.0769 378.1-21.569-5.9176-45.083-29.623-58.974-46.631-42.991-52.65-48.597-130.4-42.84-195.14l-38.768 82.273c-29.195 71.573-41.91 165.97-10.573 238.71 34.002 78.929 108.16 127.88 185.46 157.8 14.781-97.059 58.286-202.31 133.52-267.9-27.946 40.925-93.497 109.5-116.31 288.21l-70.442-26.792c-90.85-42.886-148.35-114.31-181.49-207.55l-0.4274 59.769c3.635 91.398 27.778 204.46 98.014 268.52 95.661 87.24 235.96 128.3 363.52 122.96-40.782-126.56-58.648-175.95-62.941-215.77 4.157 5.5397-7.0122-18.932 89.693 231.02-144.2 13.374-298.17-24.56-415.16-110.15 27.828 64.64 62.61 118.49 108.06 172.32 36.363 43.074 28.219 35.359 88.311 52.966 124.68 36.566 272.93 42.715 399.64 12.222l-74.701-134.1c12.26 9.4806 18.741 20.444 104.48 143.43-94.09 30.823-282.32 44.542-434.04 14.816 73.927 73.329 197.4 162.15 224.92 169.55 31.092 8.3572 234.96 23.788 389.43-60.87l-91.267-162.73c47.552 46.687 87.024 109.44 115.18 169.32-109.91 59.568-233.5 87.491-357.71 92.257 207.08 104.15 176.84 89.121 191.73 96.008 12.695 4.002 28.683 2.9114 41.89 2.926 87.828 0.1108 171.2-33.243 249.1-70.734 39.01-18.773 77.883-37.958 115.28-59.809-24.24-34.916-99.049-103.08-140.65-133.3l4.3037-0.332c60.075 32.634 128.63 81.911 166.71 139.82-292.3 155.24-318.18 142.13-352.49 155.85l200.59 75.485c23.865 7.8186 21.862 10.601 80.905-4.8516 114.8-30.04 223.58-87.049 329.04-140.48-2.363-8.0745-14.183-19.196-19.864-25.676-36.018-41.081-76.667-80.221-121.24-111.9 32.425 9.8057 127.15 78.639 168.56 141.43l-359.01 170.37 264.44 85.038c63.871 18.949 318.59-106.79 389.02-143.71-49.945-70.553-107.16-130.77-176.01-182.82 45.587 16.45 135.99 91.646 205.12 184.46l-342.41 168.09c216.5 89.052 188.39 80.981 195.75 82.292 9.6028 1.7144 36.295-8.3108 47.285-10.96 121.33-29.276 240.66-60.975 357.21-106.1-27.692-55.747-65.314-105.76-106.99-151.77-12.559-13.861-33.354-28.542-42.826-43.781 14.948 7.9688 27.682 20.352 40.478 31.362 56.48 48.623 100.34 106.42 138.62 170.02-232.1 82.719-312.86 115.16-395.21 129.8l79 46.612c28.03 17.107 48.684 36.564 80.553 42.408 70.695 13.832 107.04 3.4419 458.8-28.346-21.564-82.594-48.159-157.67-103.97-223.6l0.8696-3.3281c66.475 66.53 110.95 154.09 132.99 245.25l-448.63 50.478c73.41 48.38 127.27 108.26 134.74 112.15 3.6709 1.9165-2.1128-0.5015 76.832 15.269 201.6 47.901 217.89 46.652 386.92 125.01 4.3892-19.769 2.7349-42.956 2.73-63.167-0.0103-81.066-8.4614-157.28-19.859-237.36 33.283 93.812 43.74 252.57 35.968 336.47-157.7-88.878-332.04-116.73-446.28-138.97 75.035 92.909 69.127 86.793 114.42 158.67 5.8118 10.03 18.16 38.879 26.642 44.575 21.493 14.423 207.02 54.125 423.25 235.31 33.741-73.997 62.168-156.67 57.492-239.07-1.0459-18.401-5.2393-36.189-9.0303-54.173l9.2461 21.006c32.64 91.774-9.0449 222.43-50.025 306.52-57.893-52.851-132.19-96.968-201.16-133.65l-216.67-97.607c17.591 47.245 37.234 93.605 49.723 142.59 23.229 99.468 19.404 88.718 21.589 92.358 0.1912 0.3167 113.34 60.392 126.27 68.471 114.63 71.654 221.79 191.52 241.26 230.7-34.117-24.178-64.148-59.96-95.812-87.798-82.166-72.232-170.89-135.29-269.4-183.26 1.262 34.726 5.3948 69.135 5.1028 103.97-1.9331 90.376-7.0518 60.181 13.309 93.308 54.047 96.469 95.415 180.25 115.41 303.66 147.37-74.937 278.7-209.33 340.14-363.91l-9.0098 39.115c-53.072 164.06-199 283.98-347.82 359.51-10.513-99.075-40.93-180.48-89.98-266.72-9.1604-16.104-19.241-38.582-32.483-51.056-9.2864 45.022-19.608 87.894-35.606 131.06-4.6355 12.499-38.532 89.457-38.391 95.908 0.2366 11.184 7.9177 18.529 14.107 74.128 11.69 104.91 10.101 209.55-25.299 309.87 15.851 0.8662 5.7952 1.1787 237.66-62.584 32.106-9.6431 64.098-23.389 96.712-30.543-108.54 63.308-233.58 103.13-358.24 118.72 1.4651-11.753 66.729-151.5 5.9778-365.25-15.886 35.1-72.736 125.13-154.99 217.47-52.467 58.903-59.534 52.352-99.547 135.02-31.931 65.993-51.433 133.58-64.067 205.55 154.8 25.213 312-9.9272 363.97-13.047-21.694 8.4365-45.646 14.007-68.149 19.985-98.11 26.048-214.49 41.07-312.76 8.9492-1.9055-76.873 21.574-153.12 47.124-224.7-123.42 101.44-191.2 126.69-231.33 153.81-69.029 46.646-127.93 102.04-179.39 167.29 5.9075 6.7925 20.382 11.589 28.673 15.344 93.876 42.549 204.54 49.834 306.02 59.281l1.5737 2.6895c-91.725 6.0132-187.47 9.5073-275.42-21.785-31.005-11.03-59.527-27.265-87.255-44.766 0.7693-8.6978 7.9385-20.438 12.091-28.23 24.098-45.213 59.161-81.498 94.565-117.82-155.13 79.113-359.25 75.055-364.05 77.713-5.4514 3.0269 6.0857-5.9697-85.757 80.392 129.14 108.25 248.84 130.05 287.64 141.24l-26.747 0.0298c-110.88-2.0259-207.81-63.318-282.49-140.45 17.486-29.342 44.077-55.933 65.978-82.283-118.22 6.2285-298.22-40.596-377.01-60.347l1.8955 36.682c10.93 85.847 100.74 152.98 163.99 202.95-53.444-14.977-113.93-57.863-147.17-102.28-32.092-42.89-32.956-86.214-25.787-136.88-5.5974-4.2622-3.1565-2.3662-74.082-23.846-899.88-274.67-877.02-1011.2-1758.9-742.95-56.516 17.194-110.21 43.182-166.32 60.03 57.645-35.654 279.38-125.1 432.08-137.07 638.9-50.057 771.1 614.38 1639.2 823.34 130.7 31.463 264.5 47.19 398.79 35.922 224.19-18.808 452.69-109.48 628.57-249.89 146.74-117.13 299.92-320.1 351.16-513.19 50.888-191.75 26.108-419.65-97.295-626.38-141.34-236.78-380.68-382.16-629.32-485.68-290.68-109.14-240.02-89.888-619.99-221.02-192.71-74.78-436.54-196.46-593.69-328.9-314.69-265.2-416.08-747.62-127-1085.2 127.25-148.61 317.42-242.07 507.39-279.68 52.333-10.367 106.38-15.123 159.53-19.256 22.692-3.6331 83.312-1.4976 106.08-1.287 92.974 0.8512 106.23-3.3989 152.4 34.309l-127.41 59.11c-80.377 47.441-119.57 108.22-142.38 197.51zm560.33 613.04c113.71-59.331 238.14-108.76 363.72-135.76-38.406-31.538-86.928-48.577-133.37-64.957-106.07-37.406-211.25-60.427-321.93-79.367 43.821-2.6492 86.124 3.7158 129.29 10.256 117.83 17.848 243.19 48.582 348.38 106.21 31.121 17.049 59.226 39.366 86.109 62.358-257.25-2.8775-455.16 106.79-472.2 101.26zm797.4-487.16c-68.608-39.528-109.24-117.35-128.58-191.33 13.152 12.64 25.586 24.143 41.357 33.489 8.4766 5.0177 14.978 43.941 18.904 55.158 15.701 44.842 44.62 75.817 78.15 108.24l-9.834-5.5606zm127.56 23.213c-79.311-29.528-138.31-85.299-173.5-161.93l111.13 32.911c84.479 28.623 153.45 85.048 192.93 165.62l-130.55-36.606zm610.47 389.16c0.9604-18.788 4.1084-37.099 2.1021-55.938-4.0527-38.12-28.256-57.089-56.159-79.578 26.144 2.725 50.729 1.4177 76.822-0.5179-0.3384 44.499-7.1851 94.234-22.766 136.03z"/> </svg>